P1
# Created by GIMP version 2.10.36 PNM plug-in
8 8
0000000000011110001001000010010000111100001001000010010001100100