P1
# Created by GIMP version 2.10.36 PNM plug-in
8 8
0000000000111110000100100010001000111110001001000100010011111000